<?xml version="1.0" encoding="UTF-8"?>
<svg width="41px" height="37px" viewBox="0 0 41 37" version="1.1" xmlns="http://www.w3.org/2000/svg" xmlns:xlink="http://www.w3.org/1999/xlink">
    <!-- Generator: Sketch 49.3 (51167) - http://www.bohemiancoding.com/sketch -->
    <title>Group 2</title>
    <desc>Created with Sketch.</desc>
    <defs></defs>
    <g id="Page-1" stroke="none" stroke-width="1" fill="none" fill-rule="evenodd">
        <g id="Group-2">
            <path d="M0,34.1070632 L0,2 C-1.3527075e-16,0.8954305 0.8954305,2.02906125e-16 2,0 L30,0 C31.1045695,1.75920346e-15 32,0.8954305 32,2 L32,34.1070632 C32,34.659348 31.5522847,35.1070632 31,35.1070632 C30.791577,35.1070632 30.5883626,35.0419401 30.4187618,34.9207967 L29.1793629,34.0355118 C28.78599,33.7545311 28.2479422,33.7951748 27.9012423,34.1320598 L25.5727774,36.3946076 C25.2154286,36.7418401 24.6569764,36.7730239 24.263191,36.4677346 L21.1059094,34.0199948 C20.7484523,33.7428697 20.2494849,33.7401791 19.8890599,34.0134332 L16.5606875,36.5368194 C16.2002626,36.8100734 15.7012952,36.8073828 15.343838,36.5302577 L12.1059094,34.0199948 C11.7484523,33.7428697 11.2494849,33.7401791 10.8890599,34.0134332 L7.64450558,36.4732732 C7.24636891,36.7751182 6.68654022,36.7367927 6.33325336,36.3835059 L4.09900931,34.1492618 C3.75334783,33.8036004 3.20844911,33.7585032 2.81066433,34.0426352 L1.58123819,34.9207967 C1.13182561,35.2418057 0.507275519,35.137714 0.186266529,34.6883014 C0.0651231343,34.5187006 3.06077101e-15,34.3154862 1.55431223e-15,34.1070632 Z M4,9 C4,9.55228475 4.44771525,10 5,10 L11,10 C11.5522847,10 12,9.55228475 12,9 C12,8.44771525 11.5522847,8 11,8 L5,8 C4.44771525,8 4,8.44771525 4,9 Z M4,13 C4,13.5522847 4.44771525,14 5,14 L18,14 C18.5522847,14 19,13.5522847 19,13 C19,12.4477153 18.5522847,12 18,12 L5,12 C4.44771525,12 4,12.4477153 4,13 Z" id="Combined-Shape" fill="#D8EAF5"></path>
            <circle id="Oval" fill="#57B9F9" cx="31" cy="19" r="10"></circle>
            <path d="M31,15 C30.4768745,15 30.0528808,15.4239937 30.0528808,15.9471192 L30.0528808,18.0528808 L27.9471192,18.0528808 C27.4239937,18.0528808 27,18.4768745 27,19 C27,19.5231255 27.4239937,19.9471192 27.9471192,19.9471192 L30.0528808,19.9471192 L30.0528808,22.0531965 C30.0528808,22.576322 30.4768745,23.0003157 31,23.0003157 C31.5231255,23.0003157 31.9471192,22.576322 31.9471192,22.0531965 L31.9471192,19.9471192 L34.0528808,19.9471192 C34.5760063,19.9471192 35,19.5231255 35,19 C35,18.4768745 34.5760063,18.0528808 34.0528808,18.0528808 L31.9471192,18.0528808 L31.9471192,15.9471192 C31.9471192,15.4239937 31.5228098,15 31,15 Z" id="Shape" fill="#FFFFFF" fill-rule="nonzero"></path>
        </g>
    </g>
</svg>