<?xml version="1.0" encoding="UTF-8"?>
<svg width="13px" height="3px" viewBox="0 0 13 3" version="1.1" xmlns="http://www.w3.org/2000/svg" xmlns:xlink="http://www.w3.org/1999/xlink">
    <!-- Generator: Sketch 47.1 (45422) - http://www.bohemiancoding.com/sketch -->
    <title>Combined Shape</title>
    <desc>Created with Sketch.</desc>
    <defs></defs>
    <g id="Group-Management" stroke="none" stroke-width="1" fill="none" fill-rule="evenodd">
        <g id="Group-Listing-wih-Dropdwon" transform="translate(-557.000000, -550.000000)" fill="#C9CCD5">
            <path d="M558.5,553 C557.671573,553 557,552.328427 557,551.5 C557,550.671573 557.671573,550 558.5,550 C559.328427,550 560,550.671573 560,551.5 C560,552.328427 559.328427,553 558.5,553 Z M563.5,553 C562.671573,553 562,552.328427 562,551.5 C562,550.671573 562.671573,550 563.5,550 C564.328427,550 565,550.671573 565,551.5 C565,552.328427 564.328427,553 563.5,553 Z M568.5,553 C567.671573,553 567,552.328427 567,551.5 C567,550.671573 567.671573,550 568.5,550 C569.328427,550 570,550.671573 570,551.5 C570,552.328427 569.328427,553 568.5,553 Z" id="Combined-Shape"></path>
        </g>
    </g>
</svg>