<?xml version="1.0" encoding="UTF-8"?>
<svg width="40px" height="40px" viewBox="0 0 40 40" version="1.1" xmlns="http://www.w3.org/2000/svg" xmlns:xlink="http://www.w3.org/1999/xlink">
    <!-- Generator: Sketch 48.2 (47327) - http://www.bohemiancoding.com/sketch -->
    <title>Group</title>
    <desc>Created with Sketch.</desc>
    <defs></defs>
    <g id="Page-1" stroke="none" stroke-width="1" fill="none" fill-rule="evenodd">
        <g id="Group" fill="#D9EAF5" fill-rule="nonzero">
            <path d="M6.66666667,3.33333333 C4.8257175,3.33333333 3.33333333,4.8257175 3.33333333,6.66666667 L3.33333333,33.3333333 C3.33333333,35.1742825 4.8257175,36.6666667 6.66666667,36.6666667 L33.3333333,36.6666667 C35.1742825,36.6666667 36.6666667,35.1742825 36.6666667,33.3333333 L36.6666667,6.66666667 C36.6666667,4.8257175 35.1742825,3.33333333 33.3333333,3.33333333 L6.66666667,3.33333333 Z M6.66666667,0 L33.3333333,0 C37.0152317,0 40,2.98476833 40,6.66666667 L40,33.3333333 C40,37.0152317 37.0152317,40 33.3333333,40 L6.66666667,40 C2.98476833,40 0,37.0152317 0,33.3333333 L0,6.66666667 C0,2.98476833 2.98476833,0 6.66666667,0 Z" id="Rectangle-2"></path>
            <path d="M19.9095574,18.2530298 C20.8946046,17.4010661 22.3703882,17.4544533 23.2913008,18.3753658 C23.329597,18.413662 23.3664269,18.453397 23.401711,18.494485 C24.1723652,19.3919048 24.0696014,20.7441459 23.1721816,21.5148001 L13.1286351,30.1396394 C12.9413514,30.3004682 12.7206794,30.4176849 12.4825648,30.4828194 L10.6223924,30.9916558 C10.3954417,31.0537365 10.1559844,31.0537365 9.9290337,30.9916558 C9.22908522,30.80019 8.8168785,30.077556 9.00834423,29.3776076 L9.48230854,27.6449184 C9.56953106,27.3260557 9.74960675,27.0403337 9.99963915,26.8240816 L19.9095574,18.2530298 Z" id="Shape"></path>
        </g>
    </g>
</svg>