<?xml version="1.0" encoding="UTF-8"?>
<svg width="118px" height="29px" viewBox="0 0 118 29" version="1.1" xmlns="http://www.w3.org/2000/svg" xmlns:xlink="http://www.w3.org/1999/xlink">
    <!-- Generator: Sketch 47.1 (45422) - http://www.bohemiancoding.com/sketch -->
    <title>Group 5</title>
    <desc>Created with Sketch.</desc>
    <defs></defs>
    <g id="Group-Management" stroke="none" stroke-width="1" fill="none" fill-rule="evenodd">
        <g id="Group-Listing-wih-Dropdwon" transform="translate(-276.000000, -630.000000)" fill="#DDDDDD">
            <g id="Group-5" transform="translate(276.000000, 630.000000)">
                <path d="M19.200864,9.57114842 L23.99904,4.78796676 L17.9149183,4.78796676 C16.2540851,1.92695804 13.1537031,0 9.600192,0 C4.29800596,0.00095701914 0,4.2850532 0,9.57114842 L3.99680289e-15,28.7120097 C8.94737895,28.7120097 16.4643293,22.6119697 18.5955719,14.3557656 L24,14.3557656 L19.200864,9.57114842 Z M12.00072,9.57066991 C10.6749335,9.57066991 9.60115202,8.4997655 9.60115202,7.17860057 C9.60115202,5.85695714 10.6749335,4.78557421 12.00072,4.78557421 C13.3265065,4.78557421 14.400768,5.85695714 14.400768,7.17860057 C14.400768,8.4997655 13.3265065,9.57066991 12.00072,9.57066991 Z" id="Shape" fill-rule="nonzero" transform="translate(12.000000, 14.356005) scale(-1, 1) translate(-12.000000, -14.356005) "></path>
                <path d="M30.0390625,6.046875 L30.0390625,8.47265625 L28.5185547,8.47265625 L28.5185547,10.0634766 L30.0390625,10.0634766 L30.0390625,15.46875 C30.0390625,17.3144531 30.8740234,18.0527344 32.9746094,18.0527344 C33.34375,18.0527344 33.6953125,18.0087891 34.0029297,17.9560547 L34.0029297,16.3828125 C33.7392578,16.4091797 33.5722656,16.4267578 33.2822266,16.4267578 C32.3417969,16.4267578 31.9287109,15.9873047 31.9287109,14.9853516 L31.9287109,10.0634766 L34.0029297,10.0634766 L34.0029297,8.47265625 L31.9287109,8.47265625 L31.9287109,6.046875 L30.0390625,6.046875 Z M39.3554688,16.5673828 C40.7792969,16.5673828 41.8339844,15.6621094 41.8339844,14.4755859 L41.8339844,13.6757812 L39.4960938,13.8251953 C38.1777344,13.9130859 37.5800781,14.3613281 37.5800781,15.2050781 C37.5800781,16.0664062 38.3271484,16.5673828 39.3554688,16.5673828 Z M38.8720703,18.1582031 C37.0263672,18.1582031 35.6816406,17.0419922 35.6816406,15.2929688 C35.6816406,13.5703125 36.9648438,12.5771484 39.2412109,12.4365234 L41.8339844,12.2871094 L41.8339844,11.4609375 C41.8339844,10.4501953 41.1660156,9.87890625 39.8740234,9.87890625 C38.8193359,9.87890625 38.0898438,10.265625 37.8789062,10.9423828 L36.0507812,10.9423828 C36.2441406,9.29882812 37.7910156,8.24414062 39.9619141,8.24414062 C42.3613281,8.24414062 43.7148438,9.43945312 43.7148438,11.4609375 L43.7148438,18 L41.8955078,18 L41.8955078,16.6552734 L41.7460938,16.6552734 C41.1748047,17.6132812 40.1289062,18.1582031 38.8720703,18.1582031 Z M46.1845703,11.1357422 C46.1845703,12.5595703 47.0283203,13.3769531 48.8476562,13.8076172 L50.5175781,14.1943359 C51.4755859,14.4228516 51.9238281,14.7919922 51.9238281,15.3632812 C51.9238281,16.1279297 51.0888672,16.6552734 49.9111328,16.6552734 C48.7685547,16.6552734 48.0654297,16.1982422 47.828125,15.4599609 L45.9384766,15.4599609 C46.1054688,17.15625 47.5908203,18.1845703 49.8671875,18.1845703 C52.1523438,18.1845703 53.8310547,16.9804688 53.8310547,15.1787109 C53.8310547,13.7724609 52.9785156,12.9902344 51.1591797,12.5683594 L49.5683594,12.1992188 C48.53125,11.9619141 48.0478516,11.6015625 48.0478516,11.0302734 C48.0478516,10.2832031 48.8476562,9.78222656 49.9023438,9.78222656 C50.9746094,9.78222656 51.6601562,10.2304688 51.8359375,10.9335938 L53.6464844,10.9335938 C53.4619141,9.24609375 52.0556641,8.24414062 49.9023438,8.24414062 C47.7402344,8.24414062 46.1845703,9.43945312 46.1845703,11.1357422 Z M58.234375,12.4189453 L58.0849609,12.4189453 L58.0849609,4.69335938 L56.1953125,4.69335938 L56.1953125,18 L58.0849609,18 L58.0849609,14.5722656 L58.9199219,13.78125 L62.2070312,18 L64.5273438,18 L60.3261719,12.5332031 L64.2636719,8.42871094 L62.03125,8.42871094 L58.234375,12.4189453 Z M71.2246094,8.27050781 C73.6591797,8.27050781 75.1972656,10.1689453 75.1972656,13.2099609 C75.1972656,16.2509766 73.6591797,18.1582031 71.2421875,18.1582031 C69.8798828,18.1582031 68.7988281,17.5605469 68.2978516,16.5498047 L68.1484375,16.5498047 L68.1484375,21.1816406 L66.2587891,21.1816406 L66.2587891,8.42871094 L68.078125,8.42871094 L68.078125,10.0107422 L68.21875,10.0107422 C68.7988281,8.92089844 69.9238281,8.27050781 71.2246094,8.27050781 Z M70.6884766,16.4619141 C72.296875,16.4619141 73.2548828,15.2402344 73.2548828,13.2099609 C73.2548828,11.1884766 72.296875,9.96679688 70.6972656,9.96679688 C69.1064453,9.96679688 68.1132812,11.2148438 68.1132812,13.21875 C68.1132812,15.2138672 69.1064453,16.4619141 70.6884766,16.4619141 Z M80.59375,16.5673828 C82.0175781,16.5673828 83.0722656,15.6621094 83.0722656,14.4755859 L83.0722656,13.6757812 L80.734375,13.8251953 C79.4160156,13.9130859 78.8183594,14.3613281 78.8183594,15.2050781 C78.8183594,16.0664062 79.5654297,16.5673828 80.59375,16.5673828 Z M80.1103516,18.1582031 C78.2646484,18.1582031 76.9199219,17.0419922 76.9199219,15.2929688 C76.9199219,13.5703125 78.203125,12.5771484 80.4794922,12.4365234 L83.0722656,12.2871094 L83.0722656,11.4609375 C83.0722656,10.4501953 82.4042969,9.87890625 81.1123047,9.87890625 C80.0576172,9.87890625 79.328125,10.265625 79.1171875,10.9423828 L77.2890625,10.9423828 C77.4824219,9.29882812 79.0292969,8.24414062 81.2001953,8.24414062 C83.5996094,8.24414062 84.953125,9.43945312 84.953125,11.4609375 L84.953125,18 L83.1337891,18 L83.1337891,16.6552734 L82.984375,16.6552734 C82.4130859,17.6132812 81.3671875,18.1582031 80.1103516,18.1582031 Z M87.6425781,18 L89.5322266,18 L89.5322266,12.3486328 C89.5322266,11.0039062 90.5429688,10.0986328 91.9755859,10.0986328 C92.3095703,10.0986328 92.8720703,10.1601562 93.0302734,10.2128906 L93.0302734,8.34960938 C92.828125,8.296875 92.4677734,8.27050781 92.1865234,8.27050781 C90.9384766,8.27050781 89.875,8.95605469 89.6025391,9.89648438 L89.4619141,9.89648438 L89.4619141,8.42871094 L87.6425781,8.42871094 L87.6425781,18 Z M94.8496094,18 L96.7392578,18 L96.7392578,12.3486328 C96.7392578,11.0039062 97.75,10.0986328 99.1826172,10.0986328 C99.5166016,10.0986328 100.079102,10.1601562 100.237305,10.2128906 L100.237305,8.34960938 C100.035156,8.296875 99.6748047,8.27050781 99.3935547,8.27050781 C98.1455078,8.27050781 97.0820312,8.95605469 96.8095703,9.89648438 L96.6689453,9.89648438 L96.6689453,8.42871094 L94.8496094,8.42871094 L94.8496094,18 Z M106.099609,18.1845703 C103.295898,18.1845703 101.582031,16.3125 101.582031,13.2099609 C101.582031,10.125 103.304688,8.24414062 106.099609,8.24414062 C108.885742,8.24414062 110.608398,10.125 110.608398,13.2099609 C110.608398,16.3125 108.894531,18.1845703 106.099609,18.1845703 Z M106.099609,16.5058594 C107.734375,16.5058594 108.666016,15.2929688 108.666016,13.2099609 C108.666016,11.1357422 107.734375,9.92285156 106.099609,9.92285156 C104.456055,9.92285156 103.533203,11.1357422 103.533203,13.2099609 C103.533203,15.3017578 104.456055,16.5058594 106.099609,16.5058594 Z M113.543945,6.046875 L113.543945,8.47265625 L112.023438,8.47265625 L112.023438,10.0634766 L113.543945,10.0634766 L113.543945,15.46875 C113.543945,17.3144531 114.378906,18.0527344 116.479492,18.0527344 C116.848633,18.0527344 117.200195,18.0087891 117.507812,17.9560547 L117.507812,16.3828125 C117.244141,16.4091797 117.077148,16.4267578 116.787109,16.4267578 C115.84668,16.4267578 115.433594,15.9873047 115.433594,14.9853516 L115.433594,10.0634766 L117.507812,10.0634766 L117.507812,8.47265625 L115.433594,8.47265625 L115.433594,6.046875 L113.543945,6.046875 Z" id="taskparrot"></path>
            </g>
        </g>
    </g>
</svg>