<?xml version="1.0" encoding="UTF-8"?>
<svg width="109px" height="21px" viewBox="0 0 109 21" version="1.1" xmlns="http://www.w3.org/2000/svg" xmlns:xlink="http://www.w3.org/1999/xlink">
    <!-- Generator: Sketch 48.2 (47327) - http://www.bohemiancoding.com/sketch -->
    <title>scrapnote.</title>
    <desc>Created with Sketch.</desc>
    <defs></defs>
    <g id="Desktop" stroke="none" stroke-width="1" fill="none" fill-rule="evenodd" transform="translate(-305.000000, -589.000000)">
        <path d="M306.03125,596.199219 C306.03125,594.019531 307.988281,592.53125 310.859375,592.53125 C313.589844,592.53125 315.546875,594.042969 315.605469,596.222656 L313.226562,596.222656 C313.121094,595.132812 312.195312,594.464844 310.789062,594.464844 C309.417969,594.464844 308.503906,595.097656 308.503906,596.058594 C308.503906,596.796875 309.113281,597.289062 310.390625,597.605469 L312.464844,598.085938 C314.949219,598.683594 315.886719,599.597656 315.886719,601.402344 C315.886719,603.628906 313.777344,605.152344 310.765625,605.152344 C307.859375,605.152344 305.902344,603.664062 305.714844,601.414062 L308.222656,601.414062 C308.398438,602.597656 309.347656,603.230469 310.882812,603.230469 C312.394531,603.230469 313.34375,602.609375 313.34375,601.625 C313.34375,600.863281 312.875,600.453125 311.585938,600.125 L309.382812,599.585938 C307.15625,599.046875 306.03125,597.910156 306.03125,596.199219 Z M328.4375,596.914062 L326.023438,596.914062 C325.800781,595.613281 324.78125,594.640625 323.117188,594.640625 C321.171875,594.640625 319.882812,596.269531 319.882812,598.835938 C319.882812,601.460938 321.183594,603.042969 323.140625,603.042969 C324.710938,603.042969 325.742188,602.257812 326.023438,600.828125 L328.460938,600.828125 C328.179688,603.417969 326.105469,605.152344 323.117188,605.152344 C319.601562,605.152344 317.304688,602.75 317.304688,598.835938 C317.304688,595.003906 319.601562,592.519531 323.09375,592.519531 C326.257812,592.519531 328.226562,594.511719 328.4375,596.914062 Z M330.253906,605 L330.253906,592.671875 L332.667969,592.671875 L332.667969,594.769531 L332.726562,594.769531 C333.113281,593.375 334.238281,592.542969 335.691406,592.542969 C336.054688,592.542969 336.359375,592.589844 336.558594,592.636719 L336.558594,595.003906 C336.359375,594.921875 335.914062,594.851562 335.421875,594.851562 C333.792969,594.851562 332.785156,595.953125 332.785156,597.6875 L332.785156,605 L330.253906,605 Z M342.183594,603.171875 C343.976562,603.171875 345.335938,601.976562 345.335938,600.382812 L345.335938,599.433594 L342.382812,599.621094 C340.742188,599.714844 339.875,600.347656 339.875,601.414062 C339.875,602.445312 340.777344,603.171875 342.183594,603.171875 Z M341.480469,605.175781 C339.03125,605.175781 337.332031,603.664062 337.332031,601.472656 C337.332031,599.316406 338.984375,598.050781 342.054688,597.863281 L345.335938,597.675781 L345.335938,596.738281 C345.335938,595.34375 344.410156,594.59375 342.804688,594.59375 C341.480469,594.59375 340.507812,595.273438 340.308594,596.328125 L337.941406,596.328125 C338.011719,594.125 340.074219,592.519531 342.875,592.519531 C345.898438,592.519531 347.855469,594.101562 347.855469,596.550781 L347.855469,605 L345.429688,605 L345.429688,602.972656 L345.371094,602.972656 C344.679688,604.296875 343.144531,605.175781 341.480469,605.175781 Z M356.726562,592.542969 C359.855469,592.542969 361.917969,595.015625 361.917969,598.835938 C361.917969,602.667969 359.867188,605.128906 356.773438,605.128906 C355.015625,605.128906 353.621094,604.34375 352.894531,602.972656 L352.835938,602.972656 L352.835938,609.078125 L350.304688,609.078125 L350.304688,592.671875 L352.753906,592.671875 L352.753906,594.722656 L352.800781,594.722656 C353.503906,593.398438 355.003906,592.542969 356.726562,592.542969 Z M356.058594,602.984375 C358.027344,602.984375 359.316406,601.355469 359.316406,598.835938 C359.316406,596.339844 358.027344,594.699219 356.058594,594.699219 C354.125,594.699219 352.824219,596.375 352.824219,598.835938 C352.824219,601.320312 354.125,602.984375 356.058594,602.984375 Z M363.863281,605 L363.863281,592.671875 L366.277344,592.671875 L366.277344,594.769531 L366.335938,594.769531 C367.074219,593.292969 368.316406,592.53125 370.214844,592.53125 C372.933594,592.53125 374.492188,594.277344 374.492188,597.101562 L374.492188,605 L371.949219,605 L371.949219,597.59375 C371.949219,595.742188 371.09375,594.710938 369.3125,594.710938 C367.496094,594.710938 366.394531,596 366.394531,597.898438 L366.394531,605 L363.863281,605 Z M382.226562,605.152344 C378.640625,605.152344 376.378906,602.726562 376.378906,598.835938 C376.378906,594.957031 378.664062,592.519531 382.226562,592.519531 C385.800781,592.519531 388.074219,594.957031 388.074219,598.835938 C388.074219,602.726562 385.8125,605.152344 382.226562,605.152344 Z M382.226562,603.066406 C384.277344,603.066406 385.496094,601.507812 385.496094,598.835938 C385.496094,596.175781 384.277344,594.605469 382.226562,594.605469 C380.175781,594.605469 378.957031,596.1875 378.957031,598.835938 C378.957031,601.507812 380.175781,603.066406 382.226562,603.066406 Z M390.769531,589.753906 L393.3125,589.753906 L393.3125,592.671875 L395.65625,592.671875 L395.65625,594.675781 L393.3125,594.675781 L393.3125,601.472656 C393.3125,602.527344 393.78125,603.019531 394.8125,603.019531 C395.070312,603.019531 395.480469,602.984375 395.644531,602.960938 L395.644531,604.953125 C395.363281,605.023438 394.800781,605.070312 394.238281,605.070312 C391.742188,605.070312 390.769531,604.132812 390.769531,601.742188 L390.769531,594.675781 L388.976562,594.675781 L388.976562,592.671875 L390.769531,592.671875 L390.769531,589.753906 Z M402.59375,594.570312 C400.847656,594.570312 399.582031,595.835938 399.453125,597.699219 L405.617188,597.699219 C405.558594,595.8125 404.351562,594.570312 402.59375,594.570312 Z M405.605469,601.378906 L408.007812,601.378906 C407.667969,603.617188 405.488281,605.152344 402.699219,605.152344 C399.113281,605.152344 396.886719,602.75 396.886719,598.894531 C396.886719,595.027344 399.125,592.519531 402.59375,592.519531 C406.003906,592.519531 408.148438,594.863281 408.148438,598.601562 L408.148438,599.46875 L399.441406,599.46875 L399.441406,599.621094 C399.441406,601.730469 400.765625,603.113281 402.757812,603.113281 C404.164062,603.113281 405.265625,602.445312 405.605469,601.378906 Z M412.003906,605.128906 C411.148438,605.128906 410.46875,604.449219 410.46875,603.59375 C410.46875,602.726562 411.148438,602.058594 412.003906,602.058594 C412.871094,602.058594 413.539062,602.726562 413.539062,603.59375 C413.539062,604.449219 412.871094,605.128906 412.003906,605.128906 Z" id="scrapnote." fill="#6F645D"></path>
    </g>
</svg>